<svg width="49" height="48" viewBox="0 0 49 48" fill="none" xmlns="http://www.w3.org/2000/svg">
<path d="M24.5 29.25C27.3995 29.25 29.75 26.8995 29.75 24C29.75 21.1005 27.3995 18.75 24.5 18.75C21.6005 18.75 19.25 21.1005 19.25 24C19.25 26.8995 21.6005 29.25 24.5 29.25Z" fill="url(#paint0_linear_11713_10022)"/>
<path d="M6.5 29.25C9.3995 29.25 11.75 26.8995 11.75 24C11.75 21.1005 9.3995 18.75 6.5 18.75C3.6005 18.75 1.25 21.1005 1.25 24C1.25 26.8995 3.6005 29.25 6.5 29.25Z" fill="url(#paint1_linear_11713_10022)"/>
<path d="M42.5 29.25C45.3995 29.25 47.75 26.8995 47.75 24C47.75 21.1005 45.3995 18.75 42.5 18.75C39.6005 18.75 37.25 21.1005 37.25 24C37.25 26.8995 39.6005 29.25 42.5 29.25Z" fill="url(#paint2_linear_11713_10022)"/>
<defs>
<linearGradient id="paint0_linear_11713_10022" x1="22.4" y1="18.75" x2="27.4167" y2="29.25" gradientUnits="userSpaceOnUse">
<stop stop-color="#64DAFB"/>
<stop offset="0.291667" stop-color="#30FFDF"/>
<stop offset="0.71875" stop-color="#FFFD38"/>
</linearGradient>
<linearGradient id="paint1_linear_11713_10022" x1="4.4" y1="18.75" x2="9.41667" y2="29.25" gradientUnits="userSpaceOnUse">
<stop stop-color="#64DAFB"/>
<stop offset="0.291667" stop-color="#30FFDF"/>
<stop offset="0.71875" stop-color="#FFFD38"/>
</linearGradient>
<linearGradient id="paint2_linear_11713_10022" x1="40.4" y1="18.75" x2="45.4167" y2="29.25" gradientUnits="userSpaceOnUse">
<stop stop-color="#64DAFB"/>
<stop offset="0.291667" stop-color="#30FFDF"/>
<stop offset="0.71875" stop-color="#FFFD38"/>
</linearGradient>
</defs>
</svg>
