<svg width="37" height="38" viewBox="0 0 37 38" fill="none" xmlns="http://www.w3.org/2000/svg">
<path d="M28.2342 14.805C30.5501 19.2809 31.5126 23.7933 31.2346 27.4503C30.9552 31.1266 29.4476 33.7869 27.001 34.8733C24.5543 35.9598 21.3716 35.3823 18.1031 33.2815C14.8517 31.1917 11.6576 27.6703 9.34176 23.1943C7.02591 18.7184 6.06336 14.2061 6.34135 10.549C6.62081 6.8727 8.12836 4.21246 10.575 3.126C13.0217 2.03954 16.2044 2.61702 19.4729 4.71782C22.7243 6.80762 25.9184 10.329 28.2342 14.805Z" stroke="#D5BC83" stroke-width="1.64156"/>
<path d="M28.2342 14.805C30.5501 19.2809 31.5126 23.7933 31.2346 27.4503C30.9552 31.1266 29.4476 33.7869 27.001 34.8733C24.5543 35.9598 21.3716 35.3823 18.1031 33.2815C14.8517 31.1917 11.6576 27.6703 9.34176 23.1943C7.02591 18.7184 6.06336 14.2061 6.34135 10.549C6.62081 6.8727 8.12836 4.21246 10.575 3.126C13.0217 2.03954 16.2044 2.61702 19.4729 4.71782C22.7243 6.80762 25.9184 10.329 28.2342 14.805Z" stroke="url(#paint0_angular_8431_130953)" stroke-width="1.64156"/>
<path d="M24.8206 26.1502C20.5521 29.1715 15.9677 30.9702 12.0358 31.4655C8.07224 31.9648 4.97702 31.1289 3.3561 29.1635C1.73518 27.1981 1.67797 24.2117 3.23966 20.8001C4.78882 17.4158 7.86684 13.7906 12.1353 10.7692C16.4037 7.74786 20.9882 5.94924 24.92 5.45391C28.8836 4.95457 31.9788 5.79053 33.5997 7.7559C35.2206 9.72127 35.2779 12.7076 33.7162 16.1193C32.167 19.5036 29.089 23.1288 24.8206 26.1502Z" stroke="#D5BC83" stroke-width="1.64156"/>
<path d="M24.8206 26.1502C20.5521 29.1715 15.9677 30.9702 12.0358 31.4655C8.07224 31.9648 4.97702 31.1289 3.3561 29.1635C1.73518 27.1981 1.67797 24.2117 3.23966 20.8001C4.78882 17.4158 7.86684 13.7906 12.1353 10.7692C16.4037 7.74786 20.9882 5.94924 24.92 5.45391C28.8836 4.95457 31.9788 5.79053 33.5997 7.7559C35.2206 9.72127 35.2779 12.7076 33.7162 16.1193C32.167 19.5036 29.089 23.1288 24.8206 26.1502Z" stroke="url(#paint1_angular_8431_130953)" stroke-width="1.64156"/>
<g filter="url(#filter0_f_8431_130953)">
<path d="M9.78357 2.36564L9.6044 2.8091L10.0936 2.67182L9.62839 2.86802L10.0791 3.09138L9.60038 2.92539L9.74857 3.37856L9.53679 2.94761L9.29569 3.36513L9.47486 2.92167L8.9857 3.05896L9.45087 2.86275L9.0002 2.63939L9.47888 2.80538L9.33069 2.35221L9.54247 2.78316L9.78357 2.36564Z" fill="url(#paint2_radial_8431_130953)"/>
</g>
<g filter="url(#filter1_f_8431_130953)">
<path d="M5.90062 14.6055L5.93461 15.0779L6.31925 14.7661L5.98267 15.1225L6.49265 15.1539L5.98267 15.1854L6.31925 15.5418L5.93461 15.2299L5.90062 15.7024L5.86664 15.2299L5.48199 15.5418L5.81858 15.1854L5.30859 15.1539L5.81858 15.1225L5.48199 14.7661L5.86664 15.0779L5.90062 14.6055Z" fill="url(#paint3_radial_8431_130953)"/>
</g>
<g filter="url(#filter2_f_8431_130953)">
<path d="M20.796 29.1L20.233 29.6961L21.0861 29.7488L20.233 29.8014L20.796 30.3976L20.1526 29.8759L20.0957 30.6663L20.0389 29.8759L19.3954 30.3976L19.9584 29.8014L19.1053 29.7488L19.9584 29.6961L19.3954 29.1L20.0389 29.6216L20.0957 28.8312L20.1526 29.6216L20.796 29.1Z" fill="url(#paint4_radial_8431_130953)"/>
</g>
<g filter="url(#filter3_f_8431_130953)">
<path d="M27.2486 35.2671L26.8719 35.666L27.4427 35.7012L26.8719 35.7364L27.2486 36.1353L26.8181 35.7863L26.78 36.3151L26.742 35.7863L26.3115 36.1353L26.6882 35.7364L26.1174 35.7012L26.6882 35.666L26.3115 35.2671L26.742 35.6161L26.78 35.0873L26.8181 35.6161L27.2486 35.2671Z" fill="url(#paint5_radial_8431_130953)"/>
</g>
<g filter="url(#filter4_f_8431_130953)">
<path d="M2.6806 28.1599L2.24498 28.6164L2.90144 28.6538L2.24498 28.6913L2.6806 29.1478L2.18786 28.7442L2.14746 29.3523L2.10707 28.7442L1.61432 29.1478L2.04994 28.6913L1.39348 28.6538L2.04994 28.6164L1.61432 28.1599L2.10707 28.5635L2.14746 27.9553L2.18786 28.5635L2.6806 28.1599Z" fill="url(#paint6_radial_8431_130953)"/>
</g>
<g filter="url(#filter5_f_8431_130953)">
<path d="M9.60833 1.89844L9.66518 2.68882L10.3087 2.16718L9.74559 2.76331L10.5987 2.81598L9.74559 2.86865L10.3087 3.46478L9.66518 2.94313L9.60833 3.73352L9.55148 2.94313L8.90801 3.46478L9.47108 2.86865L8.61792 2.81598L9.47108 2.76331L8.90801 2.16718L9.55148 2.68882L9.60833 1.89844Z" fill="url(#paint7_radial_8431_130953)"/>
</g>
<g filter="url(#filter6_f_8431_130953)">
<path d="M18.3701 5.81641L18.4111 6.38684L18.8755 6.01036L18.4691 6.4406L19.0849 6.47861L18.4691 6.51662L18.8755 6.94686L18.4111 6.57038L18.3701 7.14082L18.329 6.57038L17.8646 6.94686L18.271 6.51662L17.6553 6.47861L18.271 6.4406L17.8646 6.01036L18.329 6.38684L18.3701 5.81641Z" fill="url(#paint8_radial_8431_130953)"/>
</g>
<g filter="url(#filter7_f_8431_130953)">
<path d="M22.209 28.3603L21.7198 28.858L22.4456 28.8896L21.7198 28.9211L22.209 29.4188L21.6717 28.9656L21.6377 29.638L21.6037 28.9656L21.0664 29.4188L21.5556 28.9211L20.8298 28.8896L21.5556 28.858L21.0664 28.3603L21.6037 28.8135L21.6377 28.1411L21.6717 28.8135L22.209 28.3603Z" fill="url(#paint9_radial_8431_130953)"/>
</g>
<g filter="url(#filter8_f_8431_130953)">
<path d="M31.0064 17.564L30.5559 18.0409L31.2384 18.0831L30.5559 18.1252L31.0064 18.6022L30.4915 18.1848L30.446 18.8172L30.4006 18.1848L29.8857 18.6022L30.3362 18.1252L29.6537 18.0831L30.3362 18.0409L29.8857 17.564L30.4006 17.9814L30.446 17.349L30.4915 17.9814L31.0064 17.564Z" fill="url(#paint10_radial_8431_130953)"/>
</g>
<defs>
<filter id="filter0_f_8431_130953" x="8.13964" y="1.50659" width="2.79981" height="2.71827" filterUnits="userSpaceOnUse" color-interpolation-filters="sRGB">
<feFlood flood-opacity="0" result="BackgroundImageFix"/>
<feBlend mode="normal" in="SourceGraphic" in2="BackgroundImageFix" result="shape"/>
<feGaussianBlur stdDeviation="0.422976" result="effect1_foregroundBlur_8431_130953"/>
</filter>
<filter id="filter1_f_8431_130953" x="4.16897" y="13.4658" width="3.46333" height="3.37593" filterUnits="userSpaceOnUse" color-interpolation-filters="sRGB">
<feFlood flood-opacity="0" result="BackgroundImageFix"/>
<feBlend mode="normal" in="SourceGraphic" in2="BackgroundImageFix" result="shape"/>
<feGaussianBlur stdDeviation="0.569811" result="effect1_foregroundBlur_8431_130953"/>
</filter>
<filter id="filter2_f_8431_130953" x="17.69" y="27.4158" width="4.81137" height="4.66538" filterUnits="userSpaceOnUse" color-interpolation-filters="sRGB">
<feFlood flood-opacity="0" result="BackgroundImageFix"/>
<feBlend mode="normal" in="SourceGraphic" in2="BackgroundImageFix" result="shape"/>
<feGaussianBlur stdDeviation="0.707604" result="effect1_foregroundBlur_8431_130953"/>
</filter>
<filter id="filter3_f_8431_130953" x="24.9778" y="33.9473" width="3.60444" height="3.50776" filterUnits="userSpaceOnUse" color-interpolation-filters="sRGB">
<feFlood flood-opacity="0" result="BackgroundImageFix"/>
<feBlend mode="normal" in="SourceGraphic" in2="BackgroundImageFix" result="shape"/>
<feGaussianBlur stdDeviation="0.569811" result="effect1_foregroundBlur_8431_130953"/>
</filter>
<filter id="filter4_f_8431_130953" x="0.253932" y="26.8155" width="3.78706" height="3.67671" filterUnits="userSpaceOnUse" color-interpolation-filters="sRGB">
<feFlood flood-opacity="0" result="BackgroundImageFix"/>
<feBlend mode="normal" in="SourceGraphic" in2="BackgroundImageFix" result="shape"/>
<feGaussianBlur stdDeviation="0.569811" result="effect1_foregroundBlur_8431_130953"/>
</filter>
<filter id="filter5_f_8431_130953" x="7.4783" y="0.758815" width="4.25996" height="4.11421" filterUnits="userSpaceOnUse" color-interpolation-filters="sRGB">
<feFlood flood-opacity="0" result="BackgroundImageFix"/>
<feBlend mode="normal" in="SourceGraphic" in2="BackgroundImageFix" result="shape"/>
<feGaussianBlur stdDeviation="0.569811" result="effect1_foregroundBlur_8431_130953"/>
</filter>
<filter id="filter6_f_8431_130953" x="16.5157" y="4.67678" width="3.70893" height="3.60346" filterUnits="userSpaceOnUse" color-interpolation-filters="sRGB">
<feFlood flood-opacity="0" result="BackgroundImageFix"/>
<feBlend mode="normal" in="SourceGraphic" in2="BackgroundImageFix" result="shape"/>
<feGaussianBlur stdDeviation="0.569811" result="effect1_foregroundBlur_8431_130953"/>
</filter>
<filter id="filter7_f_8431_130953" x="19.4146" y="26.7254" width="4.44614" height="4.32749" filterUnits="userSpaceOnUse" color-interpolation-filters="sRGB">
<feFlood flood-opacity="0" result="BackgroundImageFix"/>
<feBlend mode="normal" in="SourceGraphic" in2="BackgroundImageFix" result="shape"/>
<feGaussianBlur stdDeviation="0.707604" result="effect1_foregroundBlur_8431_130953"/>
</filter>
<filter id="filter8_f_8431_130953" x="28.5139" y="16.209" width="3.86421" height="3.748" filterUnits="userSpaceOnUse" color-interpolation-filters="sRGB">
<feFlood flood-opacity="0" result="BackgroundImageFix"/>
<feBlend mode="normal" in="SourceGraphic" in2="BackgroundImageFix" result="shape"/>
<feGaussianBlur stdDeviation="0.569811" result="effect1_foregroundBlur_8431_130953"/>
</filter>
<radialGradient id="paint0_angular_8431_130953" cx="0" cy="0" r="1" gradientUnits="userSpaceOnUse" gradientTransform="translate(18.788 18.9997) rotate(62.6431) scale(18.6933 11.1367)">
<stop offset="0.00013659" stop-color="#FFF1C3"/>
<stop offset="0.2068" stop-color="#9B7C3A"/>
<stop offset="0.321793" stop-color="#FFF0CA"/>
<stop offset="0.399828" stop-color="#D3AD5F"/>
<stop offset="0.490214" stop-color="#FFECC4"/>
<stop offset="0.646492" stop-color="#997736"/>
<stop offset="0.791185" stop-color="#FFF2C0"/>
<stop offset="0.885516" stop-color="#CEA851"/>
</radialGradient>
<radialGradient id="paint1_angular_8431_130953" cx="0" cy="0" r="1" gradientUnits="userSpaceOnUse" gradientTransform="translate(18.4779 18.4597) rotate(144.708) scale(19.3475 10.7601)">
<stop offset="0.00013659" stop-color="#FFF1C3"/>
<stop offset="0.2068" stop-color="#9B7C3A"/>
<stop offset="0.321793" stop-color="#FFF0CA"/>
<stop offset="0.399828" stop-color="#D3AD5F"/>
<stop offset="0.490214" stop-color="#FFECC4"/>
<stop offset="0.646492" stop-color="#997736"/>
<stop offset="0.791185" stop-color="#FFF2C0"/>
<stop offset="0.885516" stop-color="#CEA851"/>
</radialGradient>
<radialGradient id="paint2_radial_8431_130953" cx="0" cy="0" r="1" gradientUnits="userSpaceOnUse" gradientTransform="translate(9.53963 2.86539) rotate(116.019) scale(0.556104 0.583899)">
<stop stop-color="white"/>
<stop offset="1" stop-color="white" stop-opacity="0"/>
</radialGradient>
<radialGradient id="paint3_radial_8431_130953" cx="0" cy="0" r="1" gradientUnits="userSpaceOnUse" gradientTransform="translate(5.90062 15.1539) rotate(90) scale(0.548465 0.592027)">
<stop stop-color="white"/>
<stop offset="1" stop-color="white" stop-opacity="0"/>
</radialGradient>
<radialGradient id="paint4_radial_8431_130953" cx="0" cy="0" r="1" gradientUnits="userSpaceOnUse" gradientTransform="translate(20.0957 29.7488) rotate(137.187) scale(0.954676 0.951894)">
<stop stop-color="white"/>
<stop offset="1" stop-color="white" stop-opacity="0"/>
</radialGradient>
<radialGradient id="paint5_radial_8431_130953" cx="0" cy="0" r="1" gradientUnits="userSpaceOnUse" gradientTransform="translate(26.78 35.7012) rotate(137.187) scale(0.638755 0.636894)">
<stop stop-color="white"/>
<stop offset="1" stop-color="white" stop-opacity="0"/>
</radialGradient>
<radialGradient id="paint6_radial_8431_130953" cx="0" cy="0" r="1" gradientUnits="userSpaceOnUse" gradientTransform="translate(2.14746 28.6538) rotate(137.187) scale(0.72677 0.724652)">
<stop stop-color="white"/>
<stop offset="1" stop-color="white" stop-opacity="0"/>
</radialGradient>
<radialGradient id="paint7_radial_8431_130953" cx="0" cy="0" r="1" gradientUnits="userSpaceOnUse" gradientTransform="translate(9.60833 2.81598) rotate(90) scale(0.917541 0.990413)">
<stop stop-color="white"/>
<stop offset="1" stop-color="white" stop-opacity="0"/>
</radialGradient>
<radialGradient id="paint8_radial_8431_130953" cx="0" cy="0" r="1" gradientUnits="userSpaceOnUse" gradientTransform="translate(18.3701 6.47861) rotate(90) scale(0.662205 0.714801)">
<stop stop-color="white"/>
<stop offset="1" stop-color="white" stop-opacity="0"/>
</radialGradient>
<radialGradient id="paint9_radial_8431_130953" cx="0" cy="0" r="1" gradientUnits="userSpaceOnUse" gradientTransform="translate(21.6377 28.8896) rotate(137.187) scale(0.778759 0.776491)">
<stop stop-color="white"/>
<stop offset="1" stop-color="white" stop-opacity="0"/>
</radialGradient>
<radialGradient id="paint10_radial_8431_130953" cx="0" cy="0" r="1" gradientUnits="userSpaceOnUse" gradientTransform="translate(30.446 18.0831) rotate(137.187) scale(0.763799 0.761573)">
<stop stop-color="white"/>
<stop offset="1" stop-color="white" stop-opacity="0"/>
</radialGradient>
</defs>
</svg>
