<svg width="151" height="52" viewBox="0 0 151 52" fill="none" xmlns="http://www.w3.org/2000/svg">
<path d="M129.025 48.7256V51.9992H150.83V37.2348H147.653V48.7256H129.025ZM129.025 0V3.27374H147.653V14.7652H150.83V0H129.025ZM117.78 25.3261V17.7189H122.764C125.194 17.7189 126.066 18.5533 126.066 20.8326V22.1805C126.066 24.5236 125.225 25.3261 122.764 25.3261H117.78ZM125.692 26.6739C127.966 26.0641 129.554 23.8811 129.554 21.2817C129.554 19.6448 128.932 18.1679 127.748 16.9801C126.253 15.5033 124.258 14.7652 121.673 14.7652H114.665V37.234H117.78V28.2789H122.453C124.851 28.2789 125.817 29.306 125.817 31.8743V37.2348H128.994V32.3878C128.994 28.857 128.184 27.5091 125.692 27.1238V26.6739ZM99.4637 27.412H109.058V24.4591H99.4637V17.7181H109.993V14.7652H96.286V37.234H110.46V34.2811H99.4637V27.412ZM89.0277 28.5998V30.1403C89.0277 33.3823 87.8749 34.4419 84.9783 34.4419H84.2931C81.3957 34.4419 79.9941 33.4786 79.9941 29.017V22.9823C79.9941 18.4888 81.4584 17.5574 84.355 17.5574H84.9775C87.8126 17.5574 88.7159 18.6488 88.7466 21.6662H92.1735C91.862 17.2365 88.9962 14.4444 84.6972 14.4444C82.6104 14.4444 80.8658 15.1187 79.5577 16.4021C77.5951 18.2962 76.505 21.5062 76.505 25.9996C76.505 30.333 77.4397 33.543 79.3708 35.5326C80.6789 36.8487 82.4858 37.5548 84.2616 37.5548C86.1303 37.5548 87.8441 36.7842 88.7159 35.1154H89.1515V37.234H92.0173V25.6469H83.5755V28.5998H89.0277ZM61.5536 17.7181H64.9493C68.1582 17.7181 69.9027 18.5525 69.9027 23.0467V28.9525C69.9027 33.446 68.1582 34.2811 64.9493 34.2811H61.5536V17.7181ZM65.2292 37.2348C71.1794 37.2348 73.3903 32.5805 73.3903 26.0004C73.3903 19.3239 71.0232 14.766 65.1665 14.766H58.4378V37.2348H65.2292ZM43.393 27.412H52.9876V24.4591H43.393V17.7181H53.9216V14.7652H40.2149V37.234H54.3892V34.2811H43.393V27.412ZM25.0141 14.7652H21.837V37.234H36.1664V34.2811H25.0141V14.7652ZM0 37.2348V52H21.8053V48.7256H3.17709V37.2348H0ZM0 0V14.7652H3.17709V3.27374H21.8053V0H0Z" fill="white"/>
</svg>
