<svg width="119" height="19" viewBox="0 0 119 19" fill="none" xmlns="http://www.w3.org/2000/svg">
<path d="M20.5718 17.8966V13.2852L15.5427 17.0319L8.56233 17.0319L8.56233 10.0102H13.509L16.1198 12.0538V6.86607L13.509 9.17173H8.56233L8.56233 2.20234L15.5427 2.20234L20.5168 5.84424V1.52112L0.839982 1.52112L0.839982 1.88793C0.839982 1.88793 2.87362 1.96653 2.87362 3.74818L2.87362 15.6695C2.87362 17.3988 0.8125 17.5298 0.8125 17.5298L0.8125 17.8966L20.5718 17.8966Z" fill="url(#paint0_linear_11328_155795)"/>
<path d="M21.7999 17.8966H27.0764L29.5222 16.0363L29.5222 9.17173C30.1268 8.35951 31.2811 7.31148 33.0949 7.31148C35.1285 7.31148 35.3484 9.04073 35.3484 11.1892V15.5123C35.3484 17.2678 32.82 17.5298 32.82 17.5298V17.8966L43.0707 17.8966L41.0096 15.8529V11.2678C41.0096 10.7176 40.7897 9.56474 40.405 9.04073C41.092 8.2023 42.3562 7.36388 44.0326 7.36388C46.2586 7.36388 46.6158 9.01453 46.6158 11.1892V17.8966H54.3107V17.5298C52.9641 17.4512 52.2771 16.8485 52.2771 15.6695L52.2496 10.9796C52.2221 8.0713 49.3365 6.10625 45.5166 6.10625C42.1363 6.10625 40.5149 7.59969 39.9378 8.38571C38.9759 6.94467 36.7499 6.10625 34.4689 6.10625C31.2261 6.10625 29.7971 7.54729 29.1375 8.35951L29.0001 7.75689L27.1039 6.23725L21.7999 6.23725V6.60406C23.1465 6.68266 23.8335 7.28528 23.861 8.46431L23.861 15.6695C23.861 17.425 21.7999 17.5298 21.7999 17.5298V17.8966Z" fill="url(#paint1_linear_11328_155795)"/>
<path d="M54.6074 12.211C54.6349 15.6695 59.0869 18.0538 64.3909 18.0538C68.1834 18.0538 72.2781 16.9795 74.1743 14.7525L73.6522 14.3595C72.3606 15.3813 70.1071 15.8005 68.2383 15.7743C64.0611 15.6957 60.7083 13.7831 60.5709 11.425C60.5434 10.9272 60.5709 10.4818 60.6809 10.0626L74.4492 10.0626C74.4492 8.72632 72.0033 6.08004 65.71 6.08004C59.6091 6.08004 54.5524 8.56911 54.6074 12.211ZM65.6276 6.60406C68.733 6.60406 68.9803 9.19793 68.9803 9.19793L60.9007 9.19793C61.5877 7.59969 63.2367 6.60406 65.6276 6.60406Z" fill="url(#paint2_linear_11328_155795)"/>
<path d="M74.6849 6.60406C76.0315 6.68266 76.7185 7.28528 76.7185 8.46431V15.6695C76.7185 17.425 74.6849 17.5036 74.6849 17.5036V17.8966L82.3798 17.8966V9.72195C82.6546 9.43374 83.0118 9.19793 83.3691 8.98833C84.963 7.49488 86.6944 7.54729 86.6944 7.54729L89.9097 10.3246L91.2838 6.31585C90.7342 6.23725 90.1571 6.18485 89.525 6.18485C86.4745 6.18485 84.4959 7.02327 82.0775 8.64772L81.8027 7.67829L79.9889 6.23725L74.6849 6.23725V6.60406Z" fill="url(#paint3_linear_11328_155795)"/>
<path d="M91.8416 6.60406C93.2157 6.68266 93.9027 7.31148 93.9027 8.46431V17.8966L101.625 17.8966V17.5298C100.251 17.4512 99.564 16.8223 99.564 15.6695V6.23725L91.8416 6.23725V6.60406ZM92.6661 2.41194L96.3486 4.74381L100.004 2.41194L96.3486 0.0800781L92.6661 2.41194Z" fill="url(#paint4_linear_11328_155795)"/>
<path d="M114.553 15.8529C114.553 16.6913 113.426 17.3464 111.557 17.3464C111.118 17.3464 110.623 17.3202 110.101 17.2416L103.23 13.1018L103.203 17.8704L105.484 17.3988C107.078 17.7132 109.331 18.08 111.502 18.08C115.954 18.08 118.813 16.5603 118.813 14.7001C118.813 10.7962 107.105 10.8224 107.105 8.0189C107.105 7.07567 109.029 6.39445 111.008 6.70886L117.933 10.9796L117.988 6.05384L115.652 6.65646C113.893 6.31585 112.134 6.08004 110.266 6.08004C107.05 6.08004 103.011 7.31148 103.011 9.56474C103.011 13.9665 114.553 13.5997 114.553 15.8529Z" fill="url(#paint5_linear_11328_155795)"/>
<defs>
<linearGradient id="paint0_linear_11328_155795" x1="-11.6328" y1="6.47848" x2="33.0032" y2="70.585" gradientUnits="userSpaceOnUse">
<stop stop-color="#64DBFC"/>
<stop offset="0.386644" stop-color="#30FFDF"/>
<stop offset="1" stop-color="#FFFE39"/>
</linearGradient>
<linearGradient id="paint1_linear_11328_155795" x1="-11.6328" y1="6.47848" x2="33.0032" y2="70.585" gradientUnits="userSpaceOnUse">
<stop stop-color="#64DBFC"/>
<stop offset="0.386644" stop-color="#30FFDF"/>
<stop offset="1" stop-color="#FFFE39"/>
</linearGradient>
<linearGradient id="paint2_linear_11328_155795" x1="-11.6328" y1="6.47848" x2="33.0032" y2="70.585" gradientUnits="userSpaceOnUse">
<stop stop-color="#64DBFC"/>
<stop offset="0.386644" stop-color="#30FFDF"/>
<stop offset="1" stop-color="#FFFE39"/>
</linearGradient>
<linearGradient id="paint3_linear_11328_155795" x1="-11.6328" y1="6.47848" x2="33.0032" y2="70.585" gradientUnits="userSpaceOnUse">
<stop stop-color="#64DBFC"/>
<stop offset="0.386644" stop-color="#30FFDF"/>
<stop offset="1" stop-color="#FFFE39"/>
</linearGradient>
<linearGradient id="paint4_linear_11328_155795" x1="-11.6328" y1="6.47848" x2="33.0032" y2="70.585" gradientUnits="userSpaceOnUse">
<stop stop-color="#64DBFC"/>
<stop offset="0.386644" stop-color="#30FFDF"/>
<stop offset="1" stop-color="#FFFE39"/>
</linearGradient>
<linearGradient id="paint5_linear_11328_155795" x1="-11.6328" y1="6.47848" x2="33.0032" y2="70.585" gradientUnits="userSpaceOnUse">
<stop stop-color="#64DBFC"/>
<stop offset="0.386644" stop-color="#30FFDF"/>
<stop offset="1" stop-color="#FFFE39"/>
</linearGradient>
</defs>
</svg>
