<svg width="40" height="40" viewBox="0 0 40 40" fill="none" xmlns="http://www.w3.org/2000/svg">
<g style="mix-blend-mode:hard-light" opacity="0.33">
<path style="mix-blend-mode:hard-light" opacity="0.33" d="M16.029 30.5978C21.7927 32.645 28.1232 29.6281 30.1687 23.8592C32.2141 18.0903 29.1998 11.7541 23.4361 9.70687C17.6724 7.65962 11.3419 10.6766 9.29644 16.4455C7.25102 22.2143 10.2653 28.5505 16.029 30.5978Z" fill="url(#paint0_radial_11693_145816)"/>
</g>
<g filter="url(#filter0_i_11693_145816)">
<path d="M14.7093 18.8211C13.7653 21.4837 15.1565 24.4081 17.8166 25.353C20.4768 26.2979 23.3986 24.9054 24.3427 22.2429C25.2867 19.5803 23.8955 16.6559 21.2353 15.711C18.5751 14.7661 15.6533 16.1586 14.7093 18.8211Z" fill="url(#paint1_radial_11693_145816)"/>
</g>
<path d="M29.2781 25.4951C26.8356 30.2327 23.543 33.9355 20.218 36.1022C16.879 38.278 13.6071 38.8504 11.1076 37.5594C8.60794 36.2683 7.17834 33.2676 7.01551 29.283C6.85337 25.3152 7.96092 20.4838 10.4035 15.7463C12.8461 11.0088 16.1387 7.30595 19.4637 5.13925C22.8027 2.96341 26.0745 2.39104 28.5741 3.68209C31.0737 4.97314 32.5033 7.97384 32.6661 11.9584C32.8283 15.9262 31.7207 20.7576 29.2781 25.4951Z" stroke="#D5BC83"/>
<path d="M29.2781 25.4951C26.8356 30.2327 23.543 33.9355 20.218 36.1022C16.879 38.278 13.6071 38.8504 11.1076 37.5594C8.60794 36.2683 7.17834 33.2676 7.01551 29.283C6.85337 25.3152 7.96092 20.4838 10.4035 15.7463C12.8461 11.0088 16.1387 7.30595 19.4637 5.13925C22.8027 2.96341 26.0745 2.39104 28.5741 3.68209C31.0737 4.97314 32.5033 7.97384 32.6661 11.9584C32.8283 15.9262 31.7207 20.7576 29.2781 25.4951Z" stroke="url(#paint2_angular_11693_145816)"/>
<path d="M17.7246 30.6772C12.5925 29.2504 8.29902 26.7796 5.50141 23.9637C2.69199 21.1359 1.46468 18.0468 2.21746 15.3343C2.97023 12.6217 5.61346 10.6087 9.47754 9.63624C13.3254 8.66784 18.277 8.76736 23.409 10.1942C28.5411 11.621 32.8346 14.0917 35.6322 16.9077C38.4416 19.7355 39.6689 22.8246 38.9162 25.5371C38.1634 28.2496 35.5202 30.2626 31.6561 31.2351C27.8082 32.2035 22.8567 32.104 17.7246 30.6772Z" stroke="#D5BC83"/>
<path d="M17.7246 30.6772C12.5925 29.2504 8.29902 26.7796 5.50141 23.9637C2.69199 21.1359 1.46468 18.0468 2.21746 15.3343C2.97023 12.6217 5.61346 10.6087 9.47754 9.63624C13.3254 8.66784 18.277 8.76736 23.409 10.1942C28.5411 11.621 32.8346 14.0917 35.6322 16.9077C38.4416 19.7355 39.6689 22.8246 38.9162 25.5371C38.1634 28.2496 35.5202 30.2626 31.6561 31.2351C27.8082 32.2035 22.8567 32.104 17.7246 30.6772Z" stroke="url(#paint3_angular_11693_145816)"/>
<g filter="url(#filter1_f_11693_145816)">
<path d="M27.6678 2.71012L27.1861 2.85362L27.5924 3.14969L27.1504 2.91021L27.2286 3.40717L27.0852 2.92499L26.7894 3.33172L27.0287 2.8893L26.5322 2.96755L27.0139 2.82405L26.6075 2.52798L27.0496 2.76747L26.9714 2.27051L27.1148 2.75269L27.4106 2.34595L27.1713 2.78838L27.6678 2.71012Z" fill="url(#paint4_radial_11693_145816)"/>
</g>
<g filter="url(#filter2_f_11693_145816)">
<path d="M15.0411 8.22573L14.6612 8.55516L15.1534 8.65733L14.652 8.62143L14.9278 9.04199L14.5987 8.66178L14.4966 9.15437L14.5325 8.65257L14.1123 8.92865L14.4922 8.59921L14 8.49704L14.5014 8.53295L14.2255 8.11238L14.5547 8.4926L14.6568 8L14.6209 8.5018L15.0411 8.22573Z" fill="url(#paint5_radial_11693_145816)"/>
</g>
<g filter="url(#filter3_f_11693_145816)">
<path d="M11.9295 28.0997L11.0907 28.0396L11.5522 28.7432L11.0015 28.1071L10.8308 28.9312L10.8908 28.0917L10.1878 28.5536L10.8233 28.0024L10 27.8315L10.8387 27.8916L10.3773 27.188L10.9279 27.8241L11.0987 27L11.0387 27.8395L11.7416 27.3776L11.1061 27.9287L11.9295 28.0997Z" fill="url(#paint6_radial_11693_145816)"/>
</g>
<g filter="url(#filter4_f_11693_145816)">
<path d="M10.2909 37.7358L9.72981 37.6956L10.0385 38.1663L9.67011 37.7407L9.55581 38.2921L9.59601 37.7304L9.12571 38.0394L9.55091 37.6707L9 37.5563L9.56121 37.5965L9.25241 37.1258L9.62081 37.5514L9.73511 37L9.69491 37.5617L10.1653 37.2526L9.74011 37.6214L10.2909 37.7358Z" fill="url(#paint7_radial_11693_145816)"/>
</g>
<g filter="url(#filter5_f_11693_145816)">
<path d="M3.61557 13.6613L2.97068 13.6118L3.32835 14.1512L2.90731 13.6598L2.77917 14.2943L2.82861 13.6489L2.28973 14.0069L2.78069 13.5854L2.14673 13.4572L2.79162 13.5067L2.43395 12.9673L2.85499 13.4587L2.98313 12.8242L2.93369 13.4697L3.47257 13.1117L2.98161 13.5331L3.61557 13.6613Z" fill="url(#paint8_radial_11693_145816)"/>
</g>
<g filter="url(#filter6_f_11693_145816)">
<path d="M27.9597 2.27313L27.3242 2.82424L28.1475 2.99517L27.3088 2.9351L27.7702 3.63867L27.2196 3.0026L27.0488 3.82668L27.1088 2.98721L26.4059 3.44905L27.0414 2.89794L26.218 2.72701L27.0568 2.78708L26.5953 2.08351L27.146 2.71958L27.3167 1.89551L27.2567 2.73497L27.9597 2.27313Z" fill="url(#paint9_radial_11693_145816)"/>
</g>
<g filter="url(#filter7_f_11693_145816)">
<path d="M29.8395 11.6622L29.3808 12.0599L29.9751 12.1833L29.3697 12.1399L29.7028 12.6477L29.3054 12.1887L29.1821 12.7834L29.2254 12.1775L28.7181 12.5109L29.1768 12.1131L28.5825 11.9898L29.1879 12.0331L28.8548 11.5253L29.2522 11.9844L29.3755 11.3896L29.3322 11.9955L29.8395 11.6622Z" fill="url(#paint10_radial_11693_145816)"/>
</g>
<g filter="url(#filter8_f_11693_145816)">
<path d="M13.028 29.1226L12.3165 29.0575L12.7203 29.6475L12.2631 29.0979L12.1318 29.8009L12.1968 29.0887L11.6074 29.4929L12.1565 29.0353L11.4541 28.9039L12.1657 28.969L11.7619 28.3789L12.2191 28.9286L12.3504 28.2256L12.2853 28.9378L12.8748 28.5336L12.3257 28.9912L13.028 29.1226Z" fill="url(#paint11_radial_11693_145816)"/>
</g>
<g filter="url(#filter9_f_11693_145816)">
<path d="M27.5437 29.8798L26.8727 29.8318L27.2419 30.3947L26.8013 29.8858L26.6647 30.5451L26.7127 29.8734L26.1503 30.243L26.6588 29.802L26 29.6653L26.6711 29.7133L26.3019 29.1504L26.7424 29.6593L26.879 29L26.831 29.6716L27.3934 29.3021L26.885 29.7431L27.5437 29.8798Z" fill="url(#paint12_radial_11693_145816)"/>
</g>
<defs>
<filter id="filter0_i_11693_145816" x="14.4136" y="15.415" width="10.2249" height="10.2344" filterUnits="userSpaceOnUse" color-interpolation-filters="sRGB">
<feFlood flood-opacity="0" result="BackgroundImageFix"/>
<feBlend mode="normal" in="SourceGraphic" in2="BackgroundImageFix" result="shape"/>
<feColorMatrix in="SourceAlpha" type="matrix" values="0 0 0 0 0 0 0 0 0 0 0 0 0 0 0 0 0 0 127 0" result="hardAlpha"/>
<feOffset/>
<feGaussianBlur stdDeviation="5.21538"/>
<feComposite in2="hardAlpha" operator="arithmetic" k2="-1" k3="1"/>
<feColorMatrix type="matrix" values="0 0 0 0 1 0 0 0 0 1 0 0 0 0 1 0 0 0 1 0"/>
<feBlend mode="hard-light" in2="shape" result="effect1_innerShadow_11693_145816"/>
</filter>
<filter id="filter1_f_11693_145816" x="25.9806" y="1.71887" width="2.23877" height="2.23999" filterUnits="userSpaceOnUse" color-interpolation-filters="sRGB">
<feFlood flood-opacity="0" result="BackgroundImageFix"/>
<feBlend mode="normal" in="SourceGraphic" in2="BackgroundImageFix" result="shape"/>
<feGaussianBlur stdDeviation="0.275817" result="effect1_foregroundBlur_11693_145816"/>
</filter>
<filter id="filter2_f_11693_145816" x="13.2569" y="7.25687" width="2.63959" height="2.64056" filterUnits="userSpaceOnUse" color-interpolation-filters="sRGB">
<feFlood flood-opacity="0" result="BackgroundImageFix"/>
<feBlend mode="normal" in="SourceGraphic" in2="BackgroundImageFix" result="shape"/>
<feGaussianBlur stdDeviation="0.371567" result="effect1_foregroundBlur_11693_145816"/>
</filter>
<filter id="filter3_f_11693_145816" x="9.07716" y="26.0772" width="3.77512" height="3.77732" filterUnits="userSpaceOnUse" color-interpolation-filters="sRGB">
<feFlood flood-opacity="0" result="BackgroundImageFix"/>
<feBlend mode="normal" in="SourceGraphic" in2="BackgroundImageFix" result="shape"/>
<feGaussianBlur stdDeviation="0.46142" result="effect1_foregroundBlur_11693_145816"/>
</filter>
<filter id="filter4_f_11693_145816" x="8.25687" y="36.2569" width="2.77728" height="2.77826" filterUnits="userSpaceOnUse" color-interpolation-filters="sRGB">
<feFlood flood-opacity="0" result="BackgroundImageFix"/>
<feBlend mode="normal" in="SourceGraphic" in2="BackgroundImageFix" result="shape"/>
<feGaussianBlur stdDeviation="0.371567" result="effect1_foregroundBlur_11693_145816"/>
</filter>
<filter id="filter5_f_11693_145816" x="1.40359" y="12.0811" width="2.95502" height="2.95599" filterUnits="userSpaceOnUse" color-interpolation-filters="sRGB">
<feFlood flood-opacity="0" result="BackgroundImageFix"/>
<feBlend mode="normal" in="SourceGraphic" in2="BackgroundImageFix" result="shape"/>
<feGaussianBlur stdDeviation="0.371567" result="effect1_foregroundBlur_11693_145816"/>
</filter>
<filter id="filter6_f_11693_145816" x="25.4749" y="1.15237" width="3.41571" height="3.41791" filterUnits="userSpaceOnUse" color-interpolation-filters="sRGB">
<feFlood flood-opacity="0" result="BackgroundImageFix"/>
<feBlend mode="normal" in="SourceGraphic" in2="BackgroundImageFix" result="shape"/>
<feGaussianBlur stdDeviation="0.371567" result="effect1_foregroundBlur_11693_145816"/>
</filter>
<filter id="filter7_f_11693_145816" x="27.8394" y="10.6465" width="2.87885" height="2.87982" filterUnits="userSpaceOnUse" color-interpolation-filters="sRGB">
<feFlood flood-opacity="0" result="BackgroundImageFix"/>
<feBlend mode="normal" in="SourceGraphic" in2="BackgroundImageFix" result="shape"/>
<feGaussianBlur stdDeviation="0.371567" result="effect1_foregroundBlur_11693_145816"/>
</filter>
<filter id="filter8_f_11693_145816" x="10.5313" y="27.3027" width="3.41965" height="3.42088" filterUnits="userSpaceOnUse" color-interpolation-filters="sRGB">
<feFlood flood-opacity="0" result="BackgroundImageFix"/>
<feBlend mode="normal" in="SourceGraphic" in2="BackgroundImageFix" result="shape"/>
<feGaussianBlur stdDeviation="0.46142" result="effect1_foregroundBlur_11693_145816"/>
</filter>
<filter id="filter9_f_11693_145816" x="25.2569" y="28.2569" width="3.02997" height="3.03119" filterUnits="userSpaceOnUse" color-interpolation-filters="sRGB">
<feFlood flood-opacity="0" result="BackgroundImageFix"/>
<feBlend mode="normal" in="SourceGraphic" in2="BackgroundImageFix" result="shape"/>
<feGaussianBlur stdDeviation="0.371567" result="effect1_foregroundBlur_11693_145816"/>
</filter>
<radialGradient id="paint0_radial_11693_145816" cx="0" cy="0" r="1" gradientUnits="userSpaceOnUse" gradientTransform="translate(20.5452 21.5908) rotate(90) scale(13.5 13.4906)">
<stop stop-color="#DBFF9E"/>
<stop offset="1" stop-color="#55F4FB" stop-opacity="0"/>
</radialGradient>
<radialGradient id="paint1_radial_11693_145816" cx="0" cy="0" r="1" gradientUnits="userSpaceOnUse" gradientTransform="translate(17.0264 21.7586) rotate(151.434) scale(10.0641 10.3957)">
<stop stop-color="#7AFFEA"/>
<stop offset="0.440425" stop-color="#B5FFB3"/>
<stop offset="0.901618" stop-color="#FFFE6D"/>
</radialGradient>
<radialGradient id="paint2_angular_11693_145816" cx="0" cy="0" r="1" gradientUnits="userSpaceOnUse" gradientTransform="translate(19.8408 20.6207) rotate(90) scale(17.6207 12.8408)">
<stop offset="0.00013659" stop-color="#FFF1C3"/>
<stop offset="0.2068" stop-color="#9B7C3A"/>
<stop offset="0.321793" stop-color="#FFF0CA"/>
<stop offset="0.399828" stop-color="#D3AD5F"/>
<stop offset="0.490214" stop-color="#FFECC4"/>
<stop offset="0.646492" stop-color="#997736"/>
<stop offset="0.791185" stop-color="#FFF2C0"/>
<stop offset="0.885516" stop-color="#CEA851"/>
</radialGradient>
<radialGradient id="paint3_angular_11693_145816" cx="0" cy="0" r="1" gradientUnits="userSpaceOnUse" gradientTransform="translate(20.5668 20.4357) rotate(90) scale(11.4357 18.5668)">
<stop offset="0.00013659" stop-color="#FFF1C3"/>
<stop offset="0.2068" stop-color="#9B7C3A"/>
<stop offset="0.321793" stop-color="#FFF0CA"/>
<stop offset="0.399828" stop-color="#D3AD5F"/>
<stop offset="0.490214" stop-color="#FFECC4"/>
<stop offset="0.646492" stop-color="#997736"/>
<stop offset="0.791185" stop-color="#FFF2C0"/>
<stop offset="0.885516" stop-color="#CEA851"/>
</radialGradient>
<radialGradient id="paint4_radial_11693_145816" cx="0" cy="0" r="1" gradientUnits="userSpaceOnUse" gradientTransform="translate(27.1 2.83884) rotate(167.228) scale(0.582228 0.582698)">
<stop stop-color="white"/>
<stop offset="1" stop-color="white" stop-opacity="0"/>
</radialGradient>
<radialGradient id="paint5_radial_11693_145816" cx="0" cy="0" r="1" gradientUnits="userSpaceOnUse" gradientTransform="translate(14.5767 8.57719) rotate(142.881) scale(0.582393 0.582535)">
<stop stop-color="white"/>
<stop offset="1" stop-color="white" stop-opacity="0"/>
</radialGradient>
<radialGradient id="paint6_radial_11693_145816" cx="0" cy="0" r="1" gradientUnits="userSpaceOnUse" gradientTransform="translate(10.9647 27.9656) rotate(-172.088) scale(0.973996 0.974836)">
<stop stop-color="white"/>
<stop offset="1" stop-color="white" stop-opacity="0"/>
</radialGradient>
<radialGradient id="paint7_radial_11693_145816" cx="0" cy="0" r="1" gradientUnits="userSpaceOnUse" gradientTransform="translate(9.64551 37.646) rotate(-172.088) scale(0.651685 0.652246)">
<stop stop-color="white"/>
<stop offset="1" stop-color="white" stop-opacity="0"/>
</radialGradient>
<radialGradient id="paint8_radial_11693_145816" cx="0" cy="0" r="1" gradientUnits="userSpaceOnUse" gradientTransform="translate(2.88115 13.5593) rotate(-172.088) scale(0.741478 0.742117)">
<stop stop-color="white"/>
<stop offset="1" stop-color="white" stop-opacity="0"/>
</radialGradient>
<radialGradient id="paint9_radial_11693_145816" cx="0" cy="0" r="1" gradientUnits="userSpaceOnUse" gradientTransform="translate(27.1828 2.86109) rotate(142.881) scale(0.974294 0.974531)">
<stop stop-color="white"/>
<stop offset="1" stop-color="white" stop-opacity="0"/>
</radialGradient>
<radialGradient id="paint10_radial_11693_145816" cx="0" cy="0" r="1" gradientUnits="userSpaceOnUse" gradientTransform="translate(29.2788 12.0865) rotate(142.881) scale(0.703168 0.703338)">
<stop stop-color="white"/>
<stop offset="1" stop-color="white" stop-opacity="0"/>
</radialGradient>
<radialGradient id="paint11_radial_11693_145816" cx="0" cy="0" r="1" gradientUnits="userSpaceOnUse" gradientTransform="translate(12.2411 29.0132) rotate(-172.088) scale(0.794516 0.795201)">
<stop stop-color="white"/>
<stop offset="1" stop-color="white" stop-opacity="0"/>
</radialGradient>
<radialGradient id="paint12_radial_11693_145816" cx="0" cy="0" r="1" gradientUnits="userSpaceOnUse" gradientTransform="translate(26.7719 29.7725) rotate(-172.088) scale(0.779256 0.779928)">
<stop stop-color="white"/>
<stop offset="1" stop-color="white" stop-opacity="0"/>
</radialGradient>
</defs>
</svg>
